<svg xmlns="http://www.w3.org/2000/svg" viewBox="0 0 1024 1024" role="img" aria-labelledby="title desc">
  <title id="title">Rivet logo</title>
  <desc id="desc">A restrained dark app icon mark with a vertical rail, angled pressure cut, and signal point.</desc>
  <rect width="1024" height="1024" rx="184" fill="#070807"/>
  <path d="M314 196h122c120 0 204 72 204 178 0 72-39 128-101 156l153 298H560L424 552h-2v276H314V196zm108 96v174h38c45 0 74-9 94-28 20-18 30-41 30-69 0-49-35-77-102-77h-60z" fill="#E8E3D7"/>
  <path d="M688 196h78L607 828h-78L688 196z" fill="#B6FF4D"/>
  <circle cx="710" cy="760" r="58" fill="#B6FF4D"/>
  <circle cx="710" cy="760" r="24" fill="#070807"/>
</svg>
